# xmcd
#
# Track frame offsets:
#	150
#	12078
#	32110
#	52660
#	85610
#	107058
#	130668
#	156760
#	184298
#	222795
#	256530
#	273690
#	297548
#
# Disc length: 4692 seconds
#
# Revision: 3
# Processed by: cddbd v1.5.1PL0 Copyright (c) Steve Scherf et al.
# Submitted via: audiograbber 1.80
#
DISCID=ab12520d
DTITLE=Damage - Forever
DYEAR=1997
DGENRE=
TTITLE0=Reminder
TTITLE1=Love II Love
TTITLE2=Love Guaranteed
TTITLE3=Girlfriend
TTITLE4=Let It Be Me
TTITLE5=Wonderful Tonight
TTITLE6=Love Lady
TTITLE7=Anything
TTITLE8=Be My Baby
TTITLE9=Forever
TTITLE10=Do Me That Way
TTITLE11=Storyteller
TTITLE12=In Your Eyes
EXTD=
EXTT0=
EXTT1=
EXTT2=
EXTT3=
EXTT4=
EXTT5=
EXTT6=
EXTT7=
EXTT8=
EXTT9=
EXTT10=
EXTT11=
EXTT12=
PLAYORDER=
